<svg xmlns="http://www.w3.org/2000/svg" width="1357" height="170" fill="none" viewBox="0 0 1357 170"><path fill="#111" d="M102.444 111.142C101.964 118.582 100.704 124.102 98.6641 127.702C96.7441 131.182 93.5041 132.922 88.9441 132.922C85.2241 132.922 82.2241 131.782 79.9441 129.502C77.7841 127.222 76.0441 123.622 74.7241 118.702C73.4041 113.782 72.1441 106.762 70.9441 97.6418C69.8641 88.6418 68.4241 81.6218 66.6241 76.5818C64.8241 71.4218 62.2441 67.7018 58.8841 65.4218C55.6441 63.1418 51.2641 62.0018 45.7441 62.0018C39.1441 62.0018 30.5641 61.5818 20.0041 60.7418V114.202C20.0041 118.162 20.2441 121.042 20.7241 122.842C21.2041 124.642 22.1041 125.902 23.4241 126.622C24.8641 127.342 27.0241 127.822 29.9041 128.062V129.862H0.204102V128.062C3.0841 127.822 5.1841 127.342 6.5041 126.622C7.9441 125.902 8.9041 124.642 9.3841 122.842C9.8641 121.042 10.1041 118.162 10.1041 114.202V19.3418C10.1041 15.5018 9.8641 12.6818 9.3841 10.8818C8.9041 9.08175 7.9441 7.82175 6.5041 7.10175C5.1841 6.38175 3.0841 5.90175 0.204102 5.66175V3.86175H12.8041C15.2041 3.74175 20.6641 3.26175 29.1841 2.42176C36.2641 1.34176 42.3841 0.801758 47.5441 0.801758C58.1041 0.801758 66.5041 3.20176 72.7441 8.00175C79.1041 12.6818 82.2841 20.1218 82.2841 30.3218C82.2841 38.7218 79.9441 45.4418 75.2641 50.4818C70.7041 55.4018 64.8841 58.7618 57.8041 60.5618C64.7641 62.0018 70.0441 65.3018 73.6441 70.4618C77.2441 75.6218 79.7041 83.9618 81.0241 95.4818C82.1041 104.722 83.0041 111.562 83.7241 116.002C84.5641 120.322 85.5241 123.502 86.6041 125.542C87.8041 127.462 89.3641 128.422 91.2841 128.422C93.4441 128.422 95.1241 127.102 96.3241 124.462C97.5241 121.702 98.3641 117.082 98.8441 110.602L102.444 111.142ZM44.8441 58.4018C53.4841 58.4018 59.9641 55.8818 64.2841 50.8418C68.6041 45.8018 70.7641 38.9618 70.7641 30.3218C70.7641 21.6818 68.5441 15.2018 64.1041 10.8818C59.6641 6.56176 53.5441 4.40175 45.7441 4.40175C42.1441 4.40175 38.1841 4.70175 33.8641 5.30175C29.5441 5.78175 26.7841 6.08175 25.5841 6.20175L20.0041 6.92175V57.1418C28.7641 57.9818 37.0441 58.4018 44.8441 58.4018Z"/><path fill="#111" d="M150.506 132.922C141.986 132.922 134.366 131.062 127.646 127.342C121.046 123.622 115.826 118.162 111.986 110.962C108.146 103.762 106.226 95.0618 106.226 84.8618C106.226 74.6618 108.146 65.9618 111.986 58.7618C115.826 51.5618 121.046 46.1018 127.646 42.3818C134.366 38.6618 141.986 36.8018 150.506 36.8018C158.906 36.8018 166.466 38.6618 173.186 42.3818C179.906 45.9818 185.186 51.4418 189.026 58.7618C192.866 65.9618 194.786 74.6618 194.786 84.8618C194.786 95.0618 192.866 103.822 189.026 111.142C185.186 118.342 179.906 123.802 173.186 127.522C166.586 131.122 159.026 132.922 150.506 132.922ZM150.506 129.322C160.826 129.322 168.806 125.422 174.446 117.622C180.206 109.822 183.086 98.9018 183.086 84.8618C183.086 70.8218 180.206 59.9018 174.446 52.1018C168.806 44.3018 160.826 40.4018 150.506 40.4018C140.186 40.4018 132.146 44.3618 126.386 52.2818C120.746 60.0818 117.926 70.9418 117.926 84.8618C117.926 98.9018 120.746 109.822 126.386 117.622C132.026 125.422 140.066 129.322 150.506 129.322Z"/><path fill="#111" d="M282.645 114.202C282.645 118.162 282.885 121.042 283.365 122.842C283.845 124.642 284.745 125.902 286.065 126.622C287.505 127.342 289.725 127.822 292.725 128.062V129.862H262.305V128.062C265.305 127.822 267.465 127.342 268.785 126.622C270.225 125.902 271.185 124.642 271.665 122.842C272.265 121.042 272.565 118.162 272.565 114.202V64.5218C272.565 56.7218 270.825 50.9018 267.345 47.0618C263.985 43.2218 259.185 41.3018 252.945 41.3018C247.665 41.3018 242.205 42.6818 236.565 45.4418C230.925 48.2018 225.465 51.9818 220.185 56.7818V114.202C220.185 118.162 220.425 121.042 220.905 122.842C221.385 124.642 222.285 125.902 223.605 126.622C225.045 127.342 227.265 127.822 230.265 128.062V129.862H200.025V128.062C203.025 127.822 205.185 127.342 206.505 126.622C207.945 125.902 208.905 124.642 209.385 122.842C209.865 121.042 210.105 118.162 210.105 114.202V56.7818C210.105 52.8218 209.865 49.9418 209.385 48.1418C208.905 46.3418 207.945 45.0818 206.505 44.3618C205.185 43.6418 203.025 43.1618 200.025 42.9218V41.1218L212.985 40.7618C215.025 40.1618 216.825 39.1418 218.385 37.7018H220.185V52.8218C231.945 42.1418 243.585 36.8018 255.105 36.8018C263.505 36.8018 270.165 39.2018 275.085 44.0018C280.125 48.6818 282.645 56.0018 282.645 65.9618V114.202Z"/><path fill="#111" d="M378.124 96.9218C374.284 109.882 368.884 119.122 361.924 124.642C355.084 130.162 347.104 132.922 337.984 132.922C329.824 132.922 322.624 131.062 316.384 127.342C310.264 123.502 305.524 118.042 302.164 110.962C298.804 103.762 297.124 95.2418 297.124 85.4018C297.124 76.1618 298.864 67.8818 302.344 60.5618C305.944 53.1218 310.864 47.3018 317.104 43.1018C323.464 38.9018 330.664 36.8018 338.704 36.8018C348.544 36.8018 356.524 39.8618 362.644 45.9818C368.764 52.1018 372.244 61.4618 373.084 74.0618H309.364C309.004 76.7018 308.824 79.5818 308.824 82.7018C308.824 95.3018 311.584 105.802 317.104 114.202C322.744 122.602 330.664 126.802 340.864 126.802C349.024 126.802 355.864 124.342 361.384 119.422C367.024 114.382 371.464 106.582 374.704 96.0218L378.124 96.9218ZM338.524 40.4018C331.084 40.4018 324.784 43.0418 319.624 48.3218C314.584 53.6018 311.284 60.9818 309.724 70.4618H363.004C362.164 60.2618 359.584 52.7018 355.264 47.7818C350.944 42.8618 345.364 40.4018 338.524 40.4018Z"/><path fill="#111" d="M395.66 21.5017C393.38 21.5017 391.52 20.8418 390.08 19.5218C388.64 18.0818 387.92 16.3418 387.92 14.3018C387.92 12.2618 388.64 10.5818 390.08 9.26176C391.52 7.82175 393.38 7.10175 395.66 7.10175C397.82 7.10175 399.62 7.82175 401.06 9.26176C402.5 10.5818 403.22 12.2618 403.22 14.3018C403.22 16.3418 402.5 18.0818 401.06 19.5218C399.62 20.8418 397.82 21.5017 395.66 21.5017ZM391.16 56.7818C391.16 52.8218 390.92 49.9418 390.44 48.1418C389.96 46.3418 389 45.0818 387.56 44.3618C386.24 43.6418 384.08 43.1618 381.08 42.9218V41.1218L394.04 40.7618C396.08 40.1618 397.88 39.1418 399.44 37.7018H401.24V114.202C401.24 118.162 401.48 121.042 401.96 122.842C402.44 124.642 403.34 125.902 404.66 126.622C406.1 127.342 408.32 127.822 411.32 128.062V129.862H381.08V128.062C384.08 127.822 386.24 127.342 387.56 126.622C389 125.902 389.96 124.642 390.44 122.842C390.92 121.042 391.16 118.162 391.16 114.202V56.7818Z"/><path fill="#111" d="M426.316 20.7818C426.316 16.8218 426.076 13.9417 425.596 12.1418C425.116 10.3418 424.156 9.08176 422.716 8.36176C421.396 7.64175 419.236 7.16175 416.236 6.92175V5.12176L429.196 4.76175C431.236 4.16175 433.036 3.14175 434.596 1.70176H436.396V114.202C436.396 118.162 436.636 121.042 437.116 122.842C437.596 124.642 438.496 125.902 439.816 126.622C441.256 127.342 443.476 127.822 446.476 128.062V129.862H416.236V128.062C419.236 127.822 421.396 127.342 422.716 126.622C424.156 125.902 425.116 124.642 425.596 122.842C426.076 121.042 426.316 118.162 426.316 114.202V20.7818Z"/><path fill="#111" d="M460.593 20.7818C460.593 16.8218 460.353 13.9417 459.873 12.1418C459.393 10.3418 458.433 9.08176 456.993 8.36176C455.673 7.64175 453.513 7.16175 450.513 6.92175V5.12176L463.473 4.76175C465.513 4.16175 467.313 3.14175 468.873 1.70176H470.673V114.202C470.673 118.162 470.913 121.042 471.393 122.842C471.873 124.642 472.773 125.902 474.093 126.622C475.533 127.342 477.753 127.822 480.753 128.062V129.862H450.513V128.062C453.513 127.822 455.673 127.342 456.993 126.622C458.433 125.902 459.393 124.642 459.873 122.842C460.353 121.042 460.593 118.162 460.593 114.202V20.7818Z"/><path fill="#111" d="M576.08 121.222L562.04 129.682C560.36 130.522 559.04 130.942 558.08 130.942C556.04 130.942 555.02 129.382 555.02 126.262V115.282C551.9 120.802 547.58 125.122 542.06 128.242C536.66 131.362 530.6 132.922 523.88 132.922C517.28 132.922 511.1 131.602 505.34 128.962C499.7 126.322 495.14 122.302 491.66 116.902C488.18 111.382 486.44 104.602 486.44 96.5618C486.44 88.5218 488.18 81.8018 491.66 76.4018C495.14 70.8818 499.7 66.8018 505.34 64.1618C511.1 61.5218 517.34 60.2018 524.06 60.2018C530.78 60.2018 536.84 61.7618 542.24 64.8818C547.76 67.8818 552.02 72.1418 555.02 77.6618V68.6618C555.02 58.8218 552.98 51.6818 548.9 47.2418C544.94 42.6818 539.12 40.4018 531.44 40.4018C524.72 40.4018 518.12 42.2018 511.64 45.8018C505.16 49.4018 500 54.5018 496.16 61.1018H492.56L501.02 43.8218C503.3 43.8218 506.78 42.9218 511.46 41.1218C515.42 39.6818 518.9 38.6018 521.9 37.8818C525.02 37.1618 528.5 36.8018 532.34 36.8018C542.9 36.8018 551 39.5018 556.64 44.9018C562.28 50.3018 565.1 58.5218 565.1 69.5618V112.222C565.1 116.182 565.22 118.882 565.46 120.322C565.82 121.762 566.6 122.482 567.8 122.482C568.88 122.482 571.34 121.522 575.18 119.602L576.08 121.222ZM526.04 128.602C531.08 128.602 535.76 127.402 540.08 125.002C544.52 122.482 548.12 118.822 550.88 114.022C553.64 109.222 555.02 103.402 555.02 96.5618C555.02 89.7218 553.64 83.9018 550.88 79.1018C548.12 74.1818 544.52 70.5218 540.08 68.1218C535.76 65.6018 531.08 64.3418 526.04 64.3418C520.88 64.3418 516.14 65.6018 511.82 68.1218C507.62 70.6418 504.26 74.3618 501.74 79.2818C499.22 84.0818 497.96 89.8418 497.96 96.5618C497.96 103.282 499.22 109.102 501.74 114.022C504.26 118.822 507.62 122.482 511.82 125.002C516.14 127.402 520.88 128.602 526.04 128.602Z"/><path fill="#111" d="M678.877 61.2818C688.597 63.3218 696.397 67.2818 702.277 73.1618C708.157 79.0418 711.097 87.3818 711.097 98.1818C711.097 121.342 696.397 132.922 666.997 132.922C663.517 132.922 659.977 132.742 656.377 132.382C652.777 132.022 649.477 131.662 646.477 131.302C641.197 130.462 636.457 129.982 632.257 129.862L619.657 129.682V127.882C622.537 127.642 624.637 127.222 625.957 126.622C627.397 125.902 628.357 124.642 628.837 122.842C629.317 121.042 629.557 118.162 629.557 114.202V19.3418C629.557 15.5018 629.317 12.6818 628.837 10.8818C628.357 9.08175 627.397 7.82175 625.957 7.10175C624.637 6.38175 622.537 5.90175 619.657 5.66175V3.86175H632.257C634.897 3.74175 637.717 3.50175 640.717 3.14175C643.837 2.78175 645.997 2.54176 647.197 2.42176C654.157 1.34176 660.157 0.801758 665.197 0.801758C676.837 0.801758 685.897 3.50176 692.377 8.90175C698.977 14.3018 702.277 22.1018 702.277 32.3018C702.277 40.5818 700.117 47.0618 695.797 51.7418C691.477 56.3018 685.837 59.4818 678.877 61.2818ZM639.457 58.2218C646.657 59.0618 653.677 59.4818 660.517 59.4818C671.197 59.4818 678.937 57.2018 683.737 52.6418C688.537 48.0818 690.937 41.3618 690.937 32.4818C690.937 23.1218 688.537 16.1018 683.737 11.4218C678.937 6.74175 672.097 4.40175 663.217 4.40175C660.217 4.40175 656.737 4.64175 652.777 5.12176C648.817 5.60176 644.377 6.20176 639.457 6.92175V58.2218ZM665.917 129.322C675.877 129.322 683.917 126.982 690.037 122.302C696.277 117.502 699.397 109.462 699.397 98.1818C699.397 86.5418 696.097 77.7818 689.497 71.9018C683.017 66.0218 674.257 63.0818 663.217 63.0818C657.697 63.0818 649.777 62.6618 639.457 61.8218V126.622C645.817 127.582 650.797 128.302 654.397 128.782C657.997 129.142 661.837 129.322 665.917 129.322Z"/><path fill="#111" d="M798.542 112.762C798.542 116.722 798.782 119.602 799.262 121.402C799.742 123.202 800.642 124.462 801.962 125.182C803.402 125.902 805.622 126.382 808.622 126.622V128.422L795.662 128.782C793.382 129.502 791.582 130.522 790.262 131.842H788.462V118.342C783.062 122.782 777.662 126.382 772.262 129.142C766.982 131.782 761.042 133.102 754.442 133.102C746.042 133.102 739.322 130.702 734.282 125.902C729.362 121.102 726.902 113.782 726.902 103.942V56.6018C726.902 52.6418 726.662 49.7618 726.182 47.9618C725.702 46.1618 724.742 44.9618 723.302 44.3618C721.982 43.6418 719.822 43.1618 716.822 42.9218V41.1218L729.782 40.7618C731.582 40.2818 733.382 39.2018 735.182 37.5218H736.982V105.382C736.982 113.062 738.662 118.822 742.022 122.662C745.502 126.502 750.362 128.422 756.602 128.422C767.162 128.422 777.782 123.802 788.462 114.562V56.6018C788.462 52.6418 788.162 49.7618 787.562 47.9618C787.082 46.1618 786.122 44.9618 784.682 44.3618C783.362 43.6418 781.202 43.1618 778.202 42.9218V41.1218L791.342 40.7618C793.142 40.1618 794.942 39.0818 796.742 37.5218H798.542V112.762Z"/><path fill="#111" d="M936.596 114.202C936.596 118.162 936.836 121.042 937.316 122.842C937.916 124.642 938.876 125.902 940.196 126.622C941.636 127.342 943.856 127.822 946.856 128.062V129.862H916.436V128.062C919.436 127.822 921.596 127.342 922.916 126.622C924.356 125.902 925.316 124.642 925.796 122.842C926.276 121.042 926.516 118.162 926.516 114.202V64.8818C926.516 49.1618 921.476 41.3018 911.396 41.3018C907.316 41.3018 903.116 42.4418 898.796 44.7218C894.476 47.0018 889.736 50.5418 884.576 55.3418C885.296 58.5818 885.656 62.2418 885.656 66.3218V114.202C885.656 118.162 885.896 121.042 886.376 122.842C886.976 124.642 887.936 125.902 889.256 126.622C890.696 127.342 892.916 127.822 895.916 128.062V129.862H865.496V128.062C868.496 127.822 870.656 127.342 871.976 126.622C873.416 125.902 874.376 124.642 874.856 122.842C875.336 121.042 875.576 118.162 875.576 114.202V64.8818C875.576 49.1618 870.536 41.3018 860.456 41.3018C851.936 41.3018 843.356 45.9818 834.716 55.3418V114.202C834.716 118.162 834.956 121.042 835.436 122.842C835.916 124.642 836.816 125.902 838.136 126.622C839.576 127.342 841.796 127.822 844.796 128.062V129.862H814.556V128.062C817.556 127.822 819.716 127.342 821.036 126.622C822.476 125.902 823.436 124.642 823.916 122.842C824.396 121.042 824.636 118.162 824.636 114.202V56.7818C824.636 52.8218 824.396 49.9418 823.916 48.1418C823.436 46.3418 822.476 45.0818 821.036 44.3618C819.716 43.6418 817.556 43.1618 814.556 42.9218V41.1218L827.516 40.7618C829.556 40.1618 831.356 39.1418 832.916 37.7018H834.716V51.3818C843.596 41.6618 852.896 36.8018 862.616 36.8018C873.536 36.8018 880.616 41.9018 883.856 52.1018C889.256 47.0618 894.236 43.2818 898.796 40.7618C903.476 38.1218 908.396 36.8018 913.556 36.8018C920.876 36.8018 926.516 39.2018 930.476 44.0018C934.556 48.8018 936.596 56.2418 936.596 66.3218V114.202Z"/><path fill="#111" d="M1039.44 121.222L1025.4 129.682C1023.72 130.522 1022.4 130.942 1021.44 130.942C1019.4 130.942 1018.38 129.382 1018.38 126.262V115.282C1015.26 120.802 1010.94 125.122 1005.42 128.242C1000.02 131.362 993.96 132.922 987.24 132.922C980.64 132.922 974.46 131.602 968.7 128.962C963.06 126.322 958.5 122.302 955.02 116.902C951.54 111.382 949.8 104.602 949.8 96.5618C949.8 88.5218 951.54 81.8018 955.02 76.4018C958.5 70.8818 963.06 66.8018 968.7 64.1618C974.46 61.5218 980.7 60.2018 987.42 60.2018C994.14 60.2018 1000.2 61.7618 1005.6 64.8818C1011.12 67.8818 1015.38 72.1418 1018.38 77.6618V68.6618C1018.38 58.8218 1016.34 51.6818 1012.26 47.2418C1008.3 42.6818 1002.48 40.4018 994.8 40.4018C988.08 40.4018 981.48 42.2018 975 45.8018C968.52 49.4018 963.36 54.5018 959.52 61.1018H955.92L964.38 43.8218C966.66 43.8218 970.14 42.9218 974.82 41.1218C978.78 39.6818 982.26 38.6018 985.26 37.8818C988.38 37.1618 991.86 36.8018 995.7 36.8018C1006.26 36.8018 1014.36 39.5018 1020 44.9018C1025.64 50.3018 1028.46 58.5218 1028.46 69.5618V112.222C1028.46 116.182 1028.58 118.882 1028.82 120.322C1029.18 121.762 1029.96 122.482 1031.16 122.482C1032.24 122.482 1034.7 121.522 1038.54 119.602L1039.44 121.222ZM989.4 128.602C994.44 128.602 999.12 127.402 1003.44 125.002C1007.88 122.482 1011.48 118.822 1014.24 114.022C1017 109.222 1018.38 103.402 1018.38 96.5618C1018.38 89.7218 1017 83.9018 1014.24 79.1018C1011.48 74.1818 1007.88 70.5218 1003.44 68.1218C999.12 65.6018 994.44 64.3418 989.4 64.3418C984.24 64.3418 979.5 65.6018 975.18 68.1218C970.98 70.6418 967.62 74.3618 965.1 79.2818C962.58 84.0818 961.32 89.8418 961.32 96.5618C961.32 103.282 962.58 109.102 965.1 114.022C967.62 118.822 970.98 122.482 975.18 125.002C979.5 127.402 984.24 128.602 989.4 128.602Z"/><path fill="#111" d="M1124.81 114.202C1124.81 118.162 1125.05 121.042 1125.53 122.842C1126.01 124.642 1126.91 125.902 1128.23 126.622C1129.67 127.342 1131.89 127.822 1134.89 128.062V129.862H1104.47V128.062C1107.47 127.822 1109.63 127.342 1110.95 126.622C1112.39 125.902 1113.35 124.642 1113.83 122.842C1114.43 121.042 1114.73 118.162 1114.73 114.202V64.5218C1114.73 56.7218 1112.99 50.9018 1109.51 47.0618C1106.15 43.2218 1101.35 41.3018 1095.11 41.3018C1089.83 41.3018 1084.37 42.6818 1078.73 45.4418C1073.09 48.2018 1067.63 51.9818 1062.35 56.7818V114.202C1062.35 118.162 1062.59 121.042 1063.07 122.842C1063.55 124.642 1064.45 125.902 1065.77 126.622C1067.21 127.342 1069.43 127.822 1072.43 128.062V129.862H1042.19V128.062C1045.19 127.822 1047.35 127.342 1048.67 126.622C1050.11 125.902 1051.07 124.642 1051.55 122.842C1052.03 121.042 1052.27 118.162 1052.27 114.202V56.7818C1052.27 52.8218 1052.03 49.9418 1051.55 48.1418C1051.07 46.3418 1050.11 45.0818 1048.67 44.3618C1047.35 43.6418 1045.19 43.1618 1042.19 42.9218V41.1218L1055.15 40.7618C1057.19 40.1618 1058.99 39.1418 1060.55 37.7018H1062.35V52.8218C1074.11 42.1418 1085.75 36.8018 1097.27 36.8018C1105.67 36.8018 1112.33 39.2018 1117.25 44.0018C1122.29 48.6818 1124.81 56.0018 1124.81 65.9618V114.202Z"/><path fill="#111" d="M1149.83 20.7818C1149.83 16.8218 1149.59 13.9417 1149.11 12.1418C1148.63 10.3418 1147.67 9.08176 1146.23 8.36176C1144.91 7.64175 1142.75 7.16175 1139.75 6.92175V5.12176L1152.71 4.76175C1154.75 4.16175 1156.55 3.14175 1158.11 1.70176H1159.91V114.202C1159.91 118.162 1160.15 121.042 1160.63 122.842C1161.11 124.642 1162.01 125.902 1163.33 126.622C1164.77 127.342 1166.99 127.822 1169.99 128.062V129.862H1139.75V128.062C1142.75 127.822 1144.91 127.342 1146.23 126.622C1147.67 125.902 1148.63 124.642 1149.11 122.842C1149.59 121.042 1149.83 118.162 1149.83 114.202V20.7818Z"/><path fill="#111" d="M1265.32 121.222L1251.28 129.682C1249.6 130.522 1248.28 130.942 1247.32 130.942C1245.28 130.942 1244.26 129.382 1244.26 126.262V115.282C1241.14 120.802 1236.82 125.122 1231.3 128.242C1225.9 131.362 1219.84 132.922 1213.12 132.922C1206.52 132.922 1200.34 131.602 1194.58 128.962C1188.94 126.322 1184.38 122.302 1180.9 116.902C1177.42 111.382 1175.68 104.602 1175.68 96.5618C1175.68 88.5218 1177.42 81.8018 1180.9 76.4018C1184.38 70.8818 1188.94 66.8018 1194.58 64.1618C1200.34 61.5218 1206.58 60.2018 1213.3 60.2018C1220.02 60.2018 1226.08 61.7618 1231.48 64.8818C1237 67.8818 1241.26 72.1418 1244.26 77.6618V68.6618C1244.26 58.8218 1242.22 51.6818 1238.14 47.2418C1234.18 42.6818 1228.36 40.4018 1220.68 40.4018C1213.96 40.4018 1207.36 42.2018 1200.88 45.8018C1194.4 49.4018 1189.24 54.5018 1185.4 61.1018H1181.8L1190.26 43.8218C1192.54 43.8218 1196.02 42.9218 1200.7 41.1218C1204.66 39.6818 1208.14 38.6018 1211.14 37.8818C1214.26 37.1618 1217.74 36.8018 1221.58 36.8018C1232.14 36.8018 1240.24 39.5018 1245.88 44.9018C1251.52 50.3018 1254.34 58.5218 1254.34 69.5618V112.222C1254.34 116.182 1254.46 118.882 1254.7 120.322C1255.06 121.762 1255.84 122.482 1257.04 122.482C1258.12 122.482 1260.58 121.522 1264.42 119.602L1265.32 121.222ZM1215.28 128.602C1220.32 128.602 1225 127.402 1229.32 125.002C1233.76 122.482 1237.36 118.822 1240.12 114.022C1242.88 109.222 1244.26 103.402 1244.26 96.5618C1244.26 89.7218 1242.88 83.9018 1240.12 79.1018C1237.36 74.1818 1233.76 70.5218 1229.32 68.1218C1225 65.6018 1220.32 64.3418 1215.28 64.3418C1210.12 64.3418 1205.38 65.6018 1201.06 68.1218C1196.86 70.6418 1193.5 74.3618 1190.98 79.2818C1188.46 84.0818 1187.2 89.8418 1187.2 96.5618C1187.2 103.282 1188.46 109.102 1190.98 114.022C1193.5 118.822 1196.86 122.482 1201.06 125.002C1205.38 127.402 1210.12 128.602 1215.28 128.602Z"/><path fill="#111" d="M1308.63 132.382C1311.75 133.102 1314.09 133.582 1315.65 133.822C1325.13 135.862 1332.15 137.542 1336.71 138.862C1341.39 140.182 1345.05 141.922 1347.69 144.082C1350.33 146.362 1351.65 149.422 1351.65 153.262C1351.65 158.662 1348.89 162.682 1343.37 165.322C1337.85 167.962 1331.13 169.282 1323.21 169.282C1314.57 169.282 1307.67 168.082 1302.51 165.682C1297.35 163.282 1294.77 159.742 1294.77 155.062C1294.77 151.702 1296.09 148.762 1298.73 146.242C1301.37 143.842 1305.09 141.982 1309.89 140.662L1306.65 139.942C1297.17 137.902 1290.03 136.222 1285.23 134.902C1280.55 133.582 1277.01 132.022 1274.61 130.222C1272.33 128.542 1271.19 126.382 1271.19 123.742C1271.19 118.822 1275.39 115.162 1283.79 112.762C1278.87 108.922 1275.09 104.122 1272.45 98.3618C1269.93 92.4818 1268.67 86.0618 1268.67 79.1018C1268.67 70.9418 1270.41 63.6818 1273.89 57.3218C1277.37 50.8418 1282.41 45.8018 1289.01 42.2018C1295.73 38.4818 1303.59 36.6218 1312.59 36.6218C1317.63 36.6218 1322.31 37.1618 1326.63 38.2418C1328.79 34.0418 1331.73 30.5018 1335.45 27.6218C1339.17 24.7418 1343.55 22.7618 1348.59 21.6818L1353.63 29.7817C1347.51 29.9018 1342.59 30.7418 1338.87 32.3018C1335.15 33.8618 1332.09 36.2018 1329.69 39.3218C1338.21 42.2018 1344.81 47.1818 1349.49 54.2618C1354.29 61.2218 1356.69 69.5018 1356.69 79.1018C1356.69 87.2618 1354.95 94.5818 1351.47 101.062C1347.99 107.422 1342.89 112.462 1336.17 116.182C1329.57 119.782 1321.71 121.582 1312.59 121.582C1302.27 121.582 1293.57 119.242 1286.49 114.562C1283.97 115.402 1282.05 116.302 1280.73 117.262C1279.41 118.102 1278.75 119.242 1278.75 120.682C1278.75 122.482 1279.65 123.922 1281.45 125.002C1283.25 126.082 1285.89 127.102 1289.37 128.062C1292.97 128.902 1299.39 130.342 1308.63 132.382ZM1312.59 40.2218C1301.67 40.2218 1293.57 43.8818 1288.29 51.2018C1283.01 58.5218 1280.37 67.8218 1280.37 79.1018C1280.37 90.3818 1282.95 99.6818 1288.11 107.002C1293.39 114.322 1301.55 117.982 1312.59 117.982C1323.63 117.982 1331.79 114.382 1337.07 107.182C1342.35 99.8618 1344.99 90.5018 1344.99 79.1018C1344.99 67.7018 1342.35 58.4018 1337.07 51.2018C1331.79 43.8818 1323.63 40.2218 1312.59 40.2218ZM1323.21 165.682C1328.85 165.682 1333.65 164.722 1337.61 162.802C1341.57 161.002 1343.55 158.422 1343.55 155.062C1343.55 152.782 1342.59 150.922 1340.67 149.482C1338.75 148.042 1335.93 146.782 1332.21 145.702C1328.49 144.622 1322.61 143.242 1314.57 141.562C1305.81 144.322 1301.43 148.582 1301.43 154.342C1301.43 158.302 1303.53 161.182 1307.73 162.982C1311.93 164.782 1317.09 165.682 1323.21 165.682Z"/></svg>